<svg width="120" height="120" viewBox="0 0 120 120" fill="none" xmlns="http://www.w3.org/2000/svg">
  <defs>
    <linearGradient id="gradient" x1="0%" y1="0%" x2="100%" y2="100%">
      <stop offset="0%" style="stop-color:#10B981;stop-opacity:1" />
      <stop offset="100%" style="stop-color:#059669;stop-opacity:1" />
    </linearGradient>
  </defs>

  <!-- Background circle -->
  <circle cx="60" cy="60" r="56" fill="#18181B" stroke="url(#gradient)" stroke-width="2"/>

  <!-- CPU/Chip icon -->
  <rect x="35" y="35" width="50" height="50" rx="8" fill="url(#gradient)"/>

  <!-- Inner circuit lines -->
  <rect x="45" y="45" width="30" height="30" rx="4" fill="#18181B"/>

  <!-- Circuit dots -->
  <circle cx="52" cy="52" r="3" fill="#10B981"/>
  <circle cx="68" cy="52" r="3" fill="#10B981"/>
  <circle cx="52" cy="68" r="3" fill="#10B981"/>
  <circle cx="68" cy="68" r="3" fill="#10B981"/>
  <circle cx="60" cy="60" r="4" fill="#10B981"/>

  <!-- Connector lines -->
  <rect x="25" y="48" width="10" height="4" fill="#10B981"/>
  <rect x="25" y="58" width="10" height="4" fill="#10B981"/>
  <rect x="25" y="68" width="10" height="4" fill="#10B981"/>

  <rect x="85" y="48" width="10" height="4" fill="#10B981"/>
  <rect x="85" y="58" width="10" height="4" fill="#10B981"/>
  <rect x="85" y="68" width="10" height="4" fill="#10B981"/>

  <rect x="48" y="25" width="4" height="10" fill="#10B981"/>
  <rect x="58" y="25" width="4" height="10" fill="#10B981"/>
  <rect x="68" y="25" width="4" height="10" fill="#10B981"/>

  <rect x="48" y="85" width="4" height="10" fill="#10B981"/>
  <rect x="58" y="85" width="4" height="10" fill="#10B981"/>
  <rect x="68" y="85" width="4" height="10" fill="#10B981"/>
</svg>
